<?xml version="1.0" standalone="no"?>
<!DOCTYPE svg PUBLIC "-//W3C//DTD SVG 20010904//EN"
 "http://www.w3.org/TR/2001/REC-SVG-20010904/DTD/svg10.dtd">
<svg version="1.0" xmlns="http://www.w3.org/2000/svg"
 width="1152.000000pt" height="1152.000000pt" viewBox="0 0 1152.000000 1152.000000"
 preserveAspectRatio="xMidYMid meet">
<metadata>
Created by potrace 1.11, written by Peter Selinger 2001-2013
</metadata>
<g transform="translate(0.000000,1152.000000) scale(0.100000,-0.100000)"
fill="#000000" stroke="none">
<path d="M11503 9966 c-7 -12 -125 -138 -338 -361 -27 -28 -113 -119 -190
-200 -77 -82 -158 -167 -180 -190 -22 -23 -101 -106 -175 -185 -74 -78 -160
-169 -190 -200 -30 -32 -109 -115 -175 -185 -66 -70 -140 -148 -165 -174 -25
-26 -108 -114 -185 -195 -77 -82 -162 -172 -190 -201 -27 -29 -104 -109 -170
-179 -66 -70 -149 -158 -185 -195 -36 -38 -121 -128 -190 -201 -69 -73 -150
-158 -180 -190 -30 -32 -102 -108 -160 -169 -58 -62 -132 -140 -165 -175 -374
-391 -465 -489 -465 -498 0 -4 -7 -8 -15 -8 -8 0 -15 -4 -15 -8 0 -5 -35 -45
-77 -89 -43 -45 -130 -137 -194 -205 -64 -68 -142 -150 -173 -183 -90 -95
-296 -312 -356 -375 -91 -96 -208 -219 -350 -370 -74 -78 -157 -166 -185 -195
-27 -29 -108 -114 -180 -190 -263 -278 -370 -391 -454 -478 l-43 -45 -4 -1386
c-3 -866 0 -1386 6 -1386 5 0 13 6 17 14 4 8 63 72 130 142 67 71 147 156 178
189 65 69 303 320 385 405 30 32 105 111 167 177 61 65 138 146 170 179 32 34
119 126 193 204 74 79 158 167 185 196 51 53 262 276 348 368 27 28 83 87 125
132 42 44 142 149 222 233 80 84 170 179 200 211 30 32 116 122 190 201 74 78
172 181 216 228 45 47 106 111 135 143 30 31 106 112 171 180 229 242 260 275
551 581 37 39 67 75 67 79 0 4 7 8 15 8 8 0 15 3 15 8 0 4 25 34 56 67 135
143 284 301 349 369 39 40 131 137 205 216 74 78 153 161 175 185 22 23 104
109 181 191 78 82 159 167 179 189 21 22 103 109 184 194 80 85 166 175 189
200 24 25 68 72 98 103 l55 57 4 1390 c3 765 3 1391 0 1391 -2 0 -8 -6 -12
-14z"/>
<path d="M5353 9956 c-4 -8 -73 -83 -153 -167 -192 -202 -203 -213 -360 -379
-74 -79 -157 -167 -185 -196 -27 -28 -104 -109 -170 -179 -66 -71 -151 -161
-190 -201 -38 -40 -126 -133 -195 -205 -69 -73 -145 -154 -170 -180 -25 -26
-101 -107 -170 -180 -69 -73 -145 -153 -170 -179 -40 -41 -217 -228 -354 -373
-26 -29 -109 -117 -185 -196 -75 -79 -174 -184 -221 -233 -47 -50 -107 -114
-135 -142 -27 -29 -67 -71 -87 -94 -21 -23 -38 -39 -38 -36 0 4 -10 -6 -22
-22 -13 -16 -36 -43 -53 -60 -16 -16 -91 -95 -165 -174 -74 -78 -157 -166
-185 -195 -27 -29 -108 -114 -180 -190 -71 -76 -146 -154 -165 -174 -250 -263
-344 -362 -375 -396 -21 -22 -101 -107 -179 -189 -172 -181 -196 -206 -366
-386 -74 -79 -160 -169 -190 -201 -30 -31 -107 -112 -170 -179 -63 -67 -144
-153 -180 -190 -190 -199 -306 -323 -313 -336 -9 -16 -21 -2774 -12 -2774 3 0
33 30 68 67 34 37 82 88 107 113 25 25 101 106 170 179 69 73 148 156 175 185
28 29 106 113 175 185 69 73 148 156 175 185 28 29 114 120 192 202 77 82 161
170 185 195 23 26 109 116 189 200 81 85 161 170 179 189 18 19 97 103 175
185 79 83 162 170 185 195 40 43 251 265 355 375 63 66 289 305 386 408 41 43
103 109 139 147 36 37 126 132 200 210 74 78 151 159 170 179 19 21 91 97 160
170 69 73 154 163 190 200 36 38 124 130 195 206 72 76 148 156 170 180 22 23
94 99 160 169 66 70 159 168 208 218 48 50 87 94 87 98 0 4 11 13 25 20 14 7
23 15 21 18 -2 2 19 27 47 56 53 54 303 318 371 391 33 35 250 265 346 365 19
20 61 65 93 98 l59 62 4 1162 c1 640 4 1165 5 1168 1 3 1 9 -1 15 -1 5 -1 103
0 217 1 197 -4 234 -27 194z"/>
<path d="M8444 9940 c-16 -17 -58 -62 -94 -99 -119 -125 -244 -256 -390 -411
-80 -85 -172 -182 -205 -217 -85 -89 -263 -277 -525 -554 -74 -78 -151 -159
-170 -179 -19 -20 -100 -106 -180 -190 -80 -85 -161 -170 -180 -190 -19 -20
-100 -106 -180 -190 -80 -84 -161 -170 -180 -190 -44 -46 -292 -308 -345 -365
-22 -23 -107 -113 -190 -200 -82 -87 -168 -177 -190 -200 -59 -63 -312 -330
-368 -389 -27 -28 -104 -109 -170 -180 -67 -71 -140 -148 -162 -171 -22 -23
-105 -110 -185 -194 -197 -208 -195 -206 -545 -576 -192 -202 -330 -348 -382
-402 -35 -36 -63 -66 -63 -67 0 -1 -37 -41 -82 -88 -46 -47 -137 -143 -203
-213 -66 -70 -151 -160 -188 -199 -152 -158 -155 -162 -147 -176 5 -8 6 -18 3
-24 -8 -12 -10 -66 -3 -66 3 0 5 -18 5 -40 0 -22 -2 -40 -5 -40 -3 0 -5 -22
-5 -50 0 -27 4 -50 8 -50 5 0 5 -4 2 -10 -9 -14 -12 -80 -4 -80 6 0 5 -20 -1
-40 -7 -19 -4 -157 4 -168 5 -6 5 -12 0 -12 -5 0 -10 -475 -11 -1085 0 -597 1
-1085 4 -1085 7 0 92 94 93 103 0 4 7 7 15 7 8 0 15 4 15 8 0 5 28 38 62 74
35 36 124 130 198 208 74 79 155 164 180 190 25 26 97 102 160 169 63 67 138
146 165 175 28 29 113 119 190 200 77 82 163 172 190 201 70 73 334 352 370
391 17 17 95 100 175 184 186 197 202 213 345 364 66 70 149 158 185 196 56
58 246 259 360 380 19 20 98 104 175 185 77 81 160 169 185 195 111 117 348
366 377 396 17 17 29 35 26 38 -4 3 -2 6 3 6 13 0 24 11 159 155 61 65 130
139 155 165 25 26 108 114 185 195 77 81 160 169 185 196 25 26 106 111 180
190 74 78 151 159 170 179 43 45 287 302 365 385 31 33 118 125 193 204 75 79
151 159 167 176 17 17 52 55 79 83 l49 50 3 1039 c2 571 3 1071 3 1111 0 91 0
73 1 237 1 77 0 145 -1 150 -1 6 0 15 1 20 4 22 2 206 -2 211 -3 3 -18 -9 -34
-26z"/>
</g>
</svg>
