<?xml version="1.0" standalone="no"?>
<!DOCTYPE svg PUBLIC "-//W3C//DTD SVG 20010904//EN"
 "http://www.w3.org/TR/2001/REC-SVG-20010904/DTD/svg10.dtd">
<svg version="1.0" xmlns="http://www.w3.org/2000/svg"
 width="73.000000pt" height="73.000000pt" viewBox="0 0 73.000000 73.000000"
 preserveAspectRatio="xMidYMid meet">
<metadata>
Created by potrace 1.11, written by Peter Selinger 2001-2013
</metadata>
<g transform="translate(0.000000,73.000000) scale(0.100000,-0.100000)"
fill="#000000" stroke="none">
<path d="M223 706 c-125 -40 -208 -132 -220 -246 -15 -145 101 -283 259 -308
65 -10 94 -8 169 14 l56 16 79 -81 c59 -60 86 -81 105 -81 29 0 59 28 59 55 0
9 -36 54 -79 99 l-80 81 20 25 c30 39 52 126 46 182 -8 63 -51 142 -100 180
-86 68 -217 95 -314 64z m199 -117 c39 -20 81 -68 94 -109 41 -133 -108 -262
-255 -220 -109 31 -169 138 -131 235 41 106 180 151 292 94z"/>
<path d="M283 535 c-8 -6 -14 -15 -13 -20 2 -6 2 -20 1 -31 -1 -19 -6 -21 -41
-19 -22 2 -40 0 -41 -4 0 -3 -1 -21 -2 -39 -2 -31 -1 -32 41 -32 44 0 47 -5
45 -67 -1 -9 14 -13 43 -13 l44 0 0 40 0 40 45 0 44 0 -2 37 c-2 37 -2 38 -44
38 l-43 0 0 40 c0 39 -1 41 -32 40 -17 0 -37 -5 -45 -10z"/>
</g>
</svg>
